<svg width="256" height="256" viewBox="0 0 256 256" xmlns="http://www.w3.org/2000/svg" xmlns:svg="http://www.w3.org/2000/svg">
 <g>
  <path id="svg_1" fill-rule="evenodd" fill="#0379c4" d="m171.887,116.28l-53.696,89.36l-9.728,0l9.617,-58.227l-30.2,0.047c-2.684,0 -4.855,-2.172 -4.855,-4.855c0,-1.152 1.07,-3.102 1.07,-3.102l53.52,-89.254l9.9,0.043l-9.86,58.317l30.413,-0.043c2.684,0 4.855,2.172 4.855,4.855c0,1.088 -0.427,2.044 -1.033,2.854l0.004,0.004l-0.007,0.001zm-43.887,-116.28c-70.694,0 -128,57.3 -128,128s57.306,128 128,128s128,-57.306 128,-128s-57.3,-128 -128,-128z"/>
  <rect stroke="#ffffff" transform="rotate(45 127.25000762939452,129.15625) " id="svg_2" height="58.798988" width="300.074641" y="99.75676" x="-22.787316" stroke-width="5" fill="#FF0000"/>
 </g>
</svg>
